<svg xmlns="http://www.w3.org/2000/svg" xmlns:xlink="http://www.w3.org/1999/xlink" xmlns:lucid="lucid" width="1672" height="782.45"><g transform="translate(1021 16.91294921875)" lucid:page-tab-id="0_0"><path d="M-1500-500h2500v1500h-2500z" fill="#fff"/><path d="M-680 38.34a6 6 0 0 1 6-6h568a6 6 0 0 1 6 6V534a6 6 0 0 1-6 6h-568a6 6 0 0 1-6-6z" stroke="#7a5b00" stroke-width="2" fill="#fff3c9"/><path d="M-680-9.9a6 6 0 0 1 6-6h69.58a6 6 0 0 1 6 6v24.24a6 6 0 0 1-6 6H-674a6 6 0 0 1-6-6z" stroke="#7a5b00" stroke-width="2" fill="#7a5b00"/><use xlink:href="#a" transform="matrix(1,0,0,1,-672,-7.912949218750001) translate(0 16.589501953125)"/><use xlink:href="#b" transform="matrix(1,0,0,1,-672,-7.912949218750001) translate(36.75770507812501 16.589501953125)"/><path d="M-1020 46a6 6 0 0 1 6-6h228a6 6 0 0 1 6 6v203.32a6 6 0 0 1-6 6h-228a6 6 0 0 1-6-6z" stroke="#6f6f6f" stroke-width="2" fill="#f2f2f2"/><path d="M-1020-2.25a6 6 0 0 1 6-6h69.58a6 6 0 0 1 6 6V22a6 6 0 0 1-6 6H-1014a6 6 0 0 1-6-6z" stroke="#6f6f6f" stroke-width="2" fill="#6f6f6f"/><use xlink:href="#a" transform="matrix(1,0,0,1,-1012,-0.25474609375000057) translate(0 16.589501953125)"/><use xlink:href="#b" transform="matrix(1,0,0,1,-1012,-0.25474609375000057) translate(36.75770507812501 16.589501953125)"/><path d="M-25 469.42a6 6 0 0 1 6-6h663a6 6 0 0 1 6 6V654a6 6 0 0 1-6 6H-19a6 6 0 0 1-6-6z" stroke="#5f3a8a" stroke-width="2" fill="#f3e7ff"/><path d="M-25 421.17a6 6 0 0 1 6-6h69.58a6 6 0 0 1 6 6v24.25a6 6 0 0 1-6 6H-19a6 6 0 0 1-6-6z" stroke="#5f3a8a" stroke-width="2" fill="#5f3a8a"/><use xlink:href="#a" transform="matrix(1,0,0,1,-17.000000000000114,423.16859375) translate(0 16.589501953125)"/><use xlink:href="#b" transform="matrix(1,0,0,1,-17.000000000000114,423.16859375) translate(36.75770507812501 16.589501953125)"/><path d="M-980 86a6 6 0 0 1 6-6h148a6 6 0 0 1 6 6v123.32a6 6 0 0 1-6 6h-148a6 6 0 0 1-6-6z" stroke="#4a90e2" stroke-width="2" fill="#d9ecff"/><use xlink:href="#c" transform="matrix(1,0,0,1,-968,92) translate(0 19.8125)"/><use xlink:href="#d" transform="matrix(1,0,0,1,-968,92) translate(0 48.8515625)"/><use xlink:href="#e" transform="matrix(1,0,0,1,-968,92) translate(0 77.890625)"/><use xlink:href="#f" transform="matrix(1,0,0,1,-968,92) translate(0 106.9296875)"/><path d="M260 546a6 6 0 0 1 6-6h308a6 6 0 0 1 6 6v77.07a6 6 0 0 1-6 6H266a6 6 0 0 1-6-6z" stroke="#c9a227" stroke-width="2" fill="#fff7d6"/><use xlink:href="#g" transform="matrix(1,0,0,1,272,552) translate(0 44.318576388888886)"/><use xlink:href="#h" transform="matrix(1,0,0,1,272,552) translate(5 44.318576388888886)"/><use xlink:href="#i" transform="matrix(1,0,0,1,272,552) translate(67.66493055555557 44.318576388888886)"/><path d="M-729.52 393.98l.06.88.2.85.34.8.45.75.56.66.65.57.74.45.8.33.84.2.88.07h66.6v.96h-66.64l-1-.08-.98-.24-.94-.4-.87-.52-.78-.66-.66-.77-.53-.86-.4-.94-.23-1-.08-.98v-15.7h.96zM-735 147.26l1 .24.94.4.87.52.78.66.66.77.53.87.4.94.23 1 .08.98v203.18h-.96V153.68l-.06-.9-.2-.83-.34-.8-.45-.74-.56-.65-.65-.56-.74-.46-.8-.34-.84-.2-.88-.07h-82.48v-.95h82.52z" stroke="#3a414a" stroke-width=".05" fill="#3a414a"/><path d="M-818.5 148.13h-.5v-.95h.5z" fill="#3a414a"/><path stroke="#3a414a" stroke-width=".05" fill="#3a414a"/><path d="M-642.62 400l-14.26 4.63v-9.26z" fill="#3a414a"/><path d="M-641.08 400l-16.28 5.3v-10.6zm-15.33 3.98l12.25-3.98-12.26-3.98z" stroke="#3a414a" stroke-width=".05" fill="#3a414a"/><use xlink:href="#j" transform="matrix(1,0,0,1,-780.7335069444445,356.8173955661302) translate(0.005000000000002558 17.22222222222222)"/><use xlink:href="#k" transform="matrix(1,0,0,1,-780.7335069444445,356.8173955661302) translate(52.74805555555555 17.22222222222222)"/><path d="M-640 346a6 6 0 0 1 6-6h168a6 6 0 0 1 6 6v108a6 6 0 0 1-6 6h-168a6 6 0 0 1-6-6z" stroke="#8e63d9" stroke-width="2" fill="#efe3ff"/><use xlink:href="#l" transform="matrix(1,0,0,1,-628,352) translate(0 59.388888888888886)"/><use xlink:href="#m" transform="matrix(1,0,0,1,-628,352) translate(5 59.388888888888886)"/><path d="M-550 461.5V504a6 6 0 0 0 6 6h838a6 6 0 0 1 6 6v6.62" stroke="#3a414a" fill="none"/><path d="M-549.52 461.5h-.96v-.5h.96z" stroke="#3a414a" stroke-width=".05" fill="#3a414a"/><path d="M300 537.38l-4.63-14.26h9.26z" stroke="#3a414a" fill="#3a414a"/><path d="M-379 51.47a6 6 0 0 1 6-6h148a6 6 0 0 1 6 6v77.06a6 6 0 0 1-6 6h-148a6 6 0 0 1-6-6z" stroke="#000" stroke-width="2" fill="#fff"/><use xlink:href="#n" transform="matrix(1,0,0,1,-367,57.46549479166667) translate(0 44.318576388888886)"/><use xlink:href="#o" transform="matrix(1,0,0,1,-367,57.46549479166667) translate(5 44.318576388888886)"/><use xlink:href="#p" transform="matrix(1,0,0,1,-367,57.46549479166667) translate(49.72222222222223 44.318576388888886)"/><path d="M0 526a6 6 0 0 1 6-6h168a6 6 0 0 1 6 6v108a6 6 0 0 1-6 6H6a6 6 0 0 1-6-6z" stroke="#2b8ca8" stroke-width="2" fill="#e7f7ff"/><use xlink:href="#q" transform="matrix(1,0,0,1,12,532) translate(0 59.388888888888886)"/><use xlink:href="#r" transform="matrix(1,0,0,1,12,532) translate(5 59.388888888888886)"/><path d="M-594.52 573.98l.06.88.2.85.34.8.45.75.56.66.65.57.74.45.8.33.84.2.88.07h5v.96h-5.04l-1-.08-.98-.24-.94-.4-.87-.52-.78-.66-.66-.77-.53-.86-.4-.94-.23-1-.08-.98v-4.7h.96zm25.58 6.5h-10.03v-.96h10.03zm15.04 0h-10.03v-.96h10.03zm15.04 0h-10.03v-.96h10.04zm15.04 0h-10.02v-.96h10.02zm15.05 0h-10.03v-.96h10.03zm15.04 0h-10.03v-.96h10.03zm15.04 0h-10.02v-.96h10.03zm15.05 0h-10.02v-.96h10.02zm15.05 0h-10.03v-.96h10.03zm15.04 0h-10.03v-.96h10.04zm15.04 0h-10.03v-.96h10.03zm15.04 0h-10.02v-.96h10.02zm15.05 0h-10.03v-.96h10.03zm15.04 0h-10.02v-.96h10.03zm15.05 0h-10.03v-.96h10.03zm15.05 0h-10.03v-.96h10.02zm15.04 0h-10.03v-.96h10.04zm15.04 0h-10.03v-.96h10.03zm15.04 0h-10.03v-.96h10.02zm15.05 0h-10.03v-.96h10.03zm15.04 0h-10.02v-.96h10.03zm15.05 0h-10.03v-.96h10.03zm11.57 0h-6.56v-.96h6.56zm153.9 0H-97.6v-.96h10.02zm15.04 0h-10.03v-.96h10.03zm15.04 0h-10.03v-.96h10.03zm15.05 0h-10.03v-.96h10.02zm15.04 0h-10.04v-.96h10.03zm10.02 0h-5.02v-.96h5.02zm-85.25 0h-5.8v-.96h5.8zm-491.9-15.86h-.95v-9.37h.96zm0-14.06h-.95v-9.37h.96zm0-14.06h-.95v-9.38h.96zm0-14.06h-.95v-9.38h.96zm0-14.07h-.95V499h.96zm0-14.06h-.95v-9.36h.96zm0-14.05h-.95v-9.38h.96zm0-14.06h-.95v-4.7h.96z" stroke="#49a35c" stroke-width=".05" fill="#49a35c"/><path d="M-594.52 461.5h-.96v-.5h.96z" fill="#49a35c"/><path stroke="#49a35c" stroke-width=".05" fill="#49a35c"/><path d="M-2.62 580l-14.26 4.63v-9.26z" fill="#49a35c"/><path d="M-1.08 580l-16.28 5.3v-10.6zm-15.33 3.98L-4.17 580l-12.25-3.98z" stroke="#49a35c" stroke-width=".05" fill="#49a35c"/><use xlink:href="#s" transform="matrix(1,0,0,1,-241.48336776160053,569.9169921875) translate(0 16.145833333333336)"/><use xlink:href="#t" transform="matrix(1,0,0,1,-241.48336776160053,569.9169921875) translate(94.33593750000001 16.145833333333336)"/><path d="M242.7 431.84h-701.2v-.95h701.2zm147.78-6.46l-.08 1-.24.98-.4.94-.52.87-.66.77-.77.66-.86.53-.94.4-1 .23-.98.08h-66.16v-.95h66.12l.88-.08.85-.2.8-.34.75-.45.66-.56.57-.66.45-.73.33-.8.2-.84.07-.9V75.4h.96z" stroke="#8a8a8a" stroke-width=".05" fill="#8a8a8a"/><path d="M-458.5 431.84h-.5v-.95h.5z" fill="#8a8a8a"/><path stroke="#8a8a8a" stroke-width=".05" fill="#8a8a8a"/><path d="M394.63 74.88h-9.26L390 60.62z" fill="#8a8a8a"/><path d="M395.3 75.36h-10.6l5.3-16.28zM386 74.4h7.96L390 62.16z" stroke="#8a8a8a" stroke-width=".05" fill="#8a8a8a"/><use xlink:href="#u" transform="matrix(1,0,0,1,242.7045374521162,421.2776692079552) translate(0 16.145833333333336)"/><use xlink:href="#v" transform="matrix(1,0,0,1,242.7045374521162,421.2776692079552) translate(46.883138020833336 16.145833333333336)"/><path d="M420 211.5v451.12" stroke="#3a414a" fill="none"/><path d="M420.48 211.5h-.96v-.5h.96z" stroke="#3a414a" stroke-width=".05" fill="#3a414a"/><path d="M420 677.38l-4.63-14.26h9.26z" stroke="#3a414a" fill="#3a414a"/><path d="M-396.38 90.47h-17.6l-.88.07-.85.2-.8.34-.75.45-.66.56-.57.65-.45.74-.33.8-.2.84-.07.88v257.96l.06.88.2.85.34.8.45.75.56.66.65.57.74.45.8.33.84.2.88.07h749.44l1 .08.98.24.94.4.87.52.77.66.66.77.53.86.4.94.24 1 .08.98V538.5h-.95V366.02l-.07-.88-.2-.85-.34-.8-.45-.75-.55-.66-.66-.57-.75-.45-.8-.33-.84-.2-.88-.07h-749.44l-1-.08-.98-.24-.94-.4-.87-.52-.78-.66-.66-.77-.53-.86-.4-.94-.23-1-.08-.98V95.98l.08-1 .24-.98.4-.94.52-.87.66-.78.77-.66.86-.53.94-.4 1-.23.98-.07h17.64z" stroke="#3a414a" stroke-width=".05" fill="#3a414a"/><path d="M341.92 539h-.95v-.5h.95z" fill="#3a414a"/><path stroke="#3a414a" stroke-width=".05" fill="#3a414a"/><path d="M-381.62 90l-14.26 4.64v-9.28z" fill="#3a414a"/><path d="M-380.08 90l-16.28 5.3V84.7zm-15.33 3.98l12.25-3.98-12.26-3.98z" stroke="#3a414a" stroke-width=".05" fill="#3a414a"/><path d="M-379 157.32a6 6 0 0 1 6-6h208a6 6 0 0 1 6 6v59.9a6 6 0 0 1-6 6h-208a6 6 0 0 1-6-6z" stroke="#000" stroke-width="2" fill="#fff"/><use xlink:href="#w" transform="matrix(1,0,0,1,-367,163.32132975260419) translate(0 35.388888888888886)"/><use xlink:href="#x" transform="matrix(1,0,0,1,-367,163.32132975260419) translate(5 35.388888888888886)"/><use xlink:href="#y" transform="matrix(1,0,0,1,-367,163.32132975260419) translate(63.86284722222223 35.388888888888886)"/><use xlink:href="#z" transform="matrix(1,0,0,1,-367,163.32132975260419) translate(73.984375 35.388888888888886)"/><use xlink:href="#y" transform="matrix(1,0,0,1,-367,163.32132975260419) translate(117.82986111111111 35.388888888888886)"/><use xlink:href="#A" transform="matrix(1,0,0,1,-367,163.32132975260419) translate(127.95138888888889 35.388888888888886)"/><path d="M37.97 706a6 6 0 0 1 6-6h173a6 6 0 0 1 6 6v52.53a6 6 0 0 1-6 6h-173a6 6 0 0 1-6-6z" stroke="#000" stroke-width="2" fill="#fff"/><use xlink:href="#B" transform="matrix(1,0,0,1,49.96875,712) translate(0 28.57465277777778)"/><use xlink:href="#C" transform="matrix(1,0,0,1,49.96875,712) translate(6.25 28.57465277777778)"/><use xlink:href="#D" transform="matrix(1,0,0,1,49.96875,712) translate(70.22569444444444 28.57465277777778)"/><path d="M300 686a6 6 0 0 1 6-6h338a6 6 0 0 1 6 6v68a6 6 0 0 1-6 6H306a6 6 0 0 1-6-6z" stroke="#000" stroke-width="2" fill="#fff"/><g><use xlink:href="#E" transform="matrix(1,0,0,1,312,692) translate(0 41.00694444444444)"/><use xlink:href="#F" transform="matrix(1,0,0,1,312,692) translate(6.875 41.00694444444444)"/><use xlink:href="#G" transform="matrix(1,0,0,1,312,692) translate(70.20616319444443 41.00694444444444)"/><use xlink:href="#H" transform="matrix(1,0,0,1,312,692) translate(85.88975694444443 41.00694444444444)"/><use xlink:href="#I" transform="matrix(1,0,0,1,312,692) translate(156.26302083333331 41.00694444444444)"/><use xlink:href="#J" transform="matrix(1,0,0,1,312,692) translate(251.98784722222217 41.00694444444444)"/></g><path d="M90 641.5v41.12" stroke="#3a414a" fill="none"/><path d="M90.47 641.5h-.94v-.5h.94z" stroke="#3a414a" stroke-width=".05" fill="#3a414a"/><path d="M90 697.38l-4.64-14.26h9.28z" stroke="#3a414a" fill="#3a414a"/><path d="M300 66a6 6 0 0 1 6-6h168a6 6 0 0 1 6 6v138a6 6 0 0 1-6 6H306a6 6 0 0 1-6-6z" stroke="#000" stroke-width="2" fill="#fff"/><g><use xlink:href="#K" transform="matrix(1,0,0,1,312,72) translate(0 38.87413194444444)"/><use xlink:href="#I" transform="matrix(1,0,0,1,312,72) translate(6.875 38.87413194444444)"/><use xlink:href="#L" transform="matrix(1,0,0,1,312,72) translate(102.59982638888887 38.87413194444444)"/><use xlink:href="#M" transform="matrix(1,0,0,1,312,72) translate(0 79.73524305555554)"/><use xlink:href="#N" transform="matrix(1,0,0,1,312,72) translate(0 115.22743055555554)"/></g><path d="M-396.38 187.74h-17.6l-.88.07-.85.2-.8.35-.75.45-.66.56-.57.66-.45.74-.33.8-.2.84-.07.9v160.68l.06.88.2.85.34.8.45.75.56.66.65.57.74.45.8.33.84.2.88.07h749.44l1 .08.98.24.94.4.87.52.77.66.66.77.53.86.4.94.24 1 .08.98V538.5h-.95V366.02l-.07-.88-.2-.85-.34-.8-.45-.75-.55-.66-.66-.57-.75-.45-.8-.33-.84-.2-.88-.07h-749.44l-1-.08-.98-.24-.94-.4-.87-.52-.78-.66-.66-.77-.53-.86-.4-.94-.23-1-.08-.98V193.25l.08-1 .24-.98.4-.94.52-.87.66-.77.77-.67.86-.53.94-.4 1-.23.98-.08h17.64z" stroke="#3a414a" stroke-width=".05" fill="#3a414a"/><path d="M341.92 539h-.95v-.5h.95z" fill="#3a414a"/><path stroke="#3a414a" stroke-width=".05" fill="#3a414a"/><path d="M-381.62 187.27l-14.26 4.63v-9.27z" fill="#3a414a"/><path d="M-380.08 187.27l-16.28 5.3v-10.6zm-15.33 3.98l12.25-3.98-12.26-3.98z" stroke="#3a414a" stroke-width=".05" fill="#3a414a"/><path d="M-379 246a6 6 0 0 1 6-6h208a6 6 0 0 1 6 6v59.9a6 6 0 0 1-6 6h-208a6 6 0 0 1-6-6z" stroke="#000" stroke-width="2" fill="#fff"/><g><use xlink:href="#O" transform="matrix(1,0,0,1,-367,252) translate(0 30.34722222222222)"/><use xlink:href="#p" transform="matrix(1,0,0,1,-367,252) translate(87.58680555555556 30.34722222222222)"/></g><path d="M421.77 270.75l2.67 1.95.9 2.77h53.72l1 .08 1 .24.93.38.85.53.77.67.66.77.54.87.38.94.24 1 .08 1V538.5h-.95V281.96l-.07-.88-.2-.84-.33-.8-.46-.74-.55-.66-.66-.56-.75-.46-.8-.33-.84-.2-.87-.08h-54.38l-1.02-3.13-2.24-1.65-1.36-.22-2.7.88-1.63 2.25-.3 1.87h-20.75l-1.02-3.13-2.24-1.65-1.36-.22-2.7.88-1.63 2.25-.3 1.87h-527.02v-.95h526.2l.22-1.3 1.95-2.66 3.2-1.04 1.82.3 2.67 1.94.9 2.77h19.26l.2-1.3 1.95-2.66 3.2-1.04z" stroke="#3a414a" stroke-width=".05" fill="#3a414a"/><path d="M485.52 539h-.95v-.5h.95z" fill="#3a414a"/><path stroke="#3a414a" stroke-width=".05" fill="#3a414a"/><path d="M-142.12 280.58l-14.26-4.63 14.26-4.64z" fill="#3a414a"/><path d="M-141.64 281.24l-16.28-5.3 16.28-5.28zm-13.2-5.3l12.25 4v-7.98z" stroke="#3a414a" stroke-width=".05" fill="#3a414a"/><path d="M-269 313v42c-2.76 0-5 2.24-5 5s2.24 5 5 5v29a6 6 0 0 1-6 6h-167.62" stroke="#3a414a" fill="none"/><path d="M-268.52 313h-.96v-.1h.96z" stroke="#3a414a" stroke-width=".05" fill="#3a414a"/><path d="M-457.38 400l14.26-4.63v9.26z" stroke="#3a414a" fill="#3a414a"/><defs><path fill="#fff" d="M52 0l541-1490h220L1361 0h-200l-149-416H398L254 0H52zm404-582h497c-103-290-145-390-251-756-108 377-145 460-246 756" id="P"/><path fill="#fff" d="M577 24c-279 0-473-224-473-580 0-354 195-576 474-576 218 0 287 134 324 193h14v-551h180V0H922v-173h-20C865-111 790 24 577 24zm27-161c203 0 314-172 314-421 0-247-108-413-314-413-212 0-317 181-317 413 0 235 108 421 317 421" id="Q"/><g id="a"><use transform="matrix(0.008173828125000001,0,0,0.008173828125000001,0,0)" xlink:href="#P"/><use transform="matrix(0.008173828125000001,0,0,0.008173828125000001,11.549619140625001,0)" xlink:href="#Q"/><use transform="matrix(0.008173828125000001,0,0,0.008173828125000001,21.799599609375,0)" xlink:href="#Q"/></g><path fill="#fff" d="M598-1118v154H368v674c0 100 37 144 132 144 23 0 62-6 92-12L629-6c-37 13-88 20-134 20-193 0-307-107-307-290v-688H20v-154h168v-266h180v266h230" id="R"/><path fill="#fff" d="M158 0v-1118h180V0H158zm91-1301c-68 0-125-53-125-119s57-119 125-119c69 0 126 53 126 119s-57 119-126 119" id="S"/><path fill="#fff" d="M338-1490V0H158v-1490h180" id="T"/><path fill="#fff" d="M628 24c-324 0-524-230-524-574 0-343 198-582 503-582 237 0 487 146 487 559v75H286c9 234 145 362 343 362 132 0 231-58 273-172l174 48C1024-91 857 24 628 24zM287-650h624c-17-190-120-322-304-322-192 0-309 151-320 322" id="U"/><g id="b"><use transform="matrix(0.008173828125000001,0,0,0.008173828125000001,0,0)" xlink:href="#R"/><use transform="matrix(0.008173828125000001,0,0,0.008173828125000001,5.4764648437500005,0)" xlink:href="#S"/><use transform="matrix(0.008173828125000001,0,0,0.008173828125000001,9.530683593750002,0)" xlink:href="#R"/><use transform="matrix(0.008173828125000001,0,0,0.008173828125000001,15.007148437500003,0)" xlink:href="#T"/><use transform="matrix(0.008173828125000001,0,0,0.008173828125000001,19.061367187500004,0)" xlink:href="#U"/></g><path d="M657 26c-323 0-524-166-541-416h195c15 169 171 246 346 246 202 0 356-106 356-265 5-203-294-238-475-293-239-73-380-191-380-389 0-252 224-419 512-419 294 0 499 171 508 396H992c-17-145-151-228-328-228-193 0-321 102-321 242 0 156 175 211 284 241l149 41c160 44 422 134 422 412 0 244-197 432-541 432" id="V"/><path d="M158 0v-1118h180V0H158zm91-1301c-68 0-125-53-125-119s57-119 125-119c69 0 126 53 126 119s-57 119-126 119" id="W"/><path d="M158 0v-1118h175l1 205c55-151 181-225 313-225 147 0 245 90 285 228 53-141 190-228 352-228 194 0 352 125 352 384V0h-181v-749c0-161-105-225-225-225-151 0-243 103-243 244V0H807v-767c0-124-93-207-219-207-131 0-250 92-250 270V0H158" id="X"/><path d="M537 14c-226 0-379-139-379-422v-710h180v695c0 172 97 275 253 275 160 0 281-109 281-300v-670h181V0H879v-209C806-46 684 14 537 14" id="Y"/><path d="M338-1490V0H158v-1490h180" id="Z"/><path d="M471 26C259 26 90-98 90-318c0-256 228-303 435-329 202-27 287-16 287-108 0-139-79-219-234-219-161 0-248 86-283 164l-173-57c86-203 278-265 451-265 150 0 419 46 419 395V0H815v-152h-12C765-73 660 26 471 26zm31-159c199 0 310-134 310-271v-155c-30 35-226 55-295 64-131 17-246 59-246 186 0 116 97 176 231 176" id="aa"/><path d="M598-1118v154H368v674c0 100 37 144 132 144 23 0 62-6 92-12L629-6c-37 13-88 20-134 20-193 0-307-107-307-290v-688H20v-154h168v-266h180v266h230" id="ab"/><path d="M628 24c-324 0-524-230-524-574 0-343 198-582 503-582 237 0 487 146 487 559v75H286c9 234 145 362 343 362 132 0 231-58 273-172l174 48C1024-91 857 24 628 24zM287-650h624c-17-190-120-322-304-322-192 0-309 151-320 322" id="ac"/><path d="M577 24c-279 0-473-224-473-580 0-354 195-576 474-576 218 0 287 134 324 193h14v-551h180V0H922v-173h-20C865-111 790 24 577 24zm27-161c203 0 314-172 314-421 0-247-108-413-314-413-212 0-317 181-317 413 0 235 108 421 317 421" id="ad"/><g id="c"><use transform="matrix(0.009765625,0,0,0.009765625,0,0)" xlink:href="#V"/><use transform="matrix(0.009765625,0,0,0.009765625,12.83203125,0)" xlink:href="#W"/><use transform="matrix(0.009765625,0,0,0.009765625,17.67578125,0)" xlink:href="#X"/><use transform="matrix(0.009765625,0,0,0.009765625,35.1953125,0)" xlink:href="#Y"/><use transform="matrix(0.009765625,0,0,0.009765625,47.021484375,0)" xlink:href="#Z"/><use transform="matrix(0.009765625,0,0,0.009765625,51.865234375,0)" xlink:href="#aa"/><use transform="matrix(0.009765625,0,0,0.009765625,63.095703125,0)" xlink:href="#ab"/><use transform="matrix(0.009765625,0,0,0.009765625,69.443359375,0)" xlink:href="#ac"/><use transform="matrix(0.009765625,0,0,0.009765625,81.103515625,0)" xlink:href="#ad"/></g><path d="M180 0v-1490h908v168H370v486h669v168H370v500h727V0H180" id="ae"/><path d="M180 0v-1490h510c348 0 508 209 508 474 0 266-160 477-507 477H370V0H180zm190-706h312c236 0 327-133 327-310 0-176-91-307-329-307H370v617" id="af"/><path d="M635 20c-292 0-500-160-510-396h192c11 142 145 229 315 229 187 0 323-105 323-260 0-161-125-274-346-274H488v-165h121c174 0 294-100 294-254 0-148-104-245-266-245-152 0-291 85-297 230H157c8-234 222-395 484-395 278 0 448 188 448 400 0 168-95 291-247 336v12c190 31 301 169 301 357 0 244-216 425-508 425" id="ag"/><path d="M154 0v-137l495-537c165-179 249-281 249-418 0-156-121-253-280-253-170 0-278 110-278 278H158c0-264 200-443 465-443 266 0 455 183 455 416 0 161-73 288-336 568L416-179v12h687V0H154" id="ah"/><g id="d"><use transform="matrix(0.009765625,0,0,0.009765625,0,0)" xlink:href="#ae"/><use transform="matrix(0.009765625,0,0,0.009765625,12.021484375,0)" xlink:href="#V"/><use transform="matrix(0.009765625,0,0,0.009765625,24.853515625,0)" xlink:href="#af"/><use transform="matrix(0.009765625,0,0,0.009765625,37.626953125,0)" xlink:href="#ag"/><use transform="matrix(0.009765625,0,0,0.009765625,49.98046875,0)" xlink:href="#ah"/></g><path d="M180 0v-1490h190v644h782v-644h190V0h-190v-678H370V0H180" id="ai"/><path d="M158 0v-1118h174v172h12c41-113 157-188 290-188 26 0 70 2 91 3v181c-11-2-60-10-108-10-161 0-279 109-279 260V0H158" id="aj"/><path d="M409 0L70-1118h191c89 329 165 560 243 925 75-353 154-601 240-925h192c85 325 161 564 235 922 77-354 157-598 244-922h191L1267 0h-179c-86-307-176-590-250-913C763-588 675-308 588 0H409" id="ak"/><g id="e"><use transform="matrix(0.009765625,0,0,0.009765625,0,0)" xlink:href="#ai"/><use transform="matrix(0.009765625,0,0,0.009765625,14.86328125,0)" xlink:href="#aa"/><use transform="matrix(0.009765625,0,0,0.009765625,26.09375,0)" xlink:href="#aj"/><use transform="matrix(0.009765625,0,0,0.009765625,33.291015625,0)" xlink:href="#ad"/><use transform="matrix(0.009765625,0,0,0.009765625,45.537109375,0)" xlink:href="#ak"/><use transform="matrix(0.009765625,0,0,0.009765625,61.904296875,0)" xlink:href="#aa"/><use transform="matrix(0.009765625,0,0,0.009765625,73.134765625,0)" xlink:href="#aj"/><use transform="matrix(0.009765625,0,0,0.009765625,80.33203125,0)" xlink:href="#ac"/></g><path d="M180 0v-1490h224l606 953c40 63 108 177 176 312-27-437-7-821-13-1265h190V0h-226C860-448 622-778 356-1262c27 476 11 792 15 1262H180" id="al"/><path d="M613 24c-304 0-509-231-509-576 0-350 205-580 509-580 305 0 511 230 511 580 0 345-206 576-511 576zm0-161c226 0 329-195 329-415 0-222-103-419-329-419-223 0-326 196-326 419 0 220 103 415 326 415" id="am"/><g id="f"><use transform="matrix(0.009765625,0,0,0.009765625,0,0)" xlink:href="#al"/><use transform="matrix(0.009765625,0,0,0.009765625,15.068359375,0)" xlink:href="#am"/><use transform="matrix(0.009765625,0,0,0.009765625,27.060546875,0)" xlink:href="#ad"/><use transform="matrix(0.009765625,0,0,0.009765625,39.306640625,0)" xlink:href="#ac"/></g><path d="M645 0H180v-1490h484c435 0 692 280 692 742 0 466-257 748-711 748zM370-168h263c363 0 539-218 539-580 0-358-176-574-521-574H370v1154" id="an"/><path d="M481 0L54-1118h197c107 314 236 620 325 951 87-331 217-637 324-951h197L670 0H481" id="ao"/><path d="M613 24c-304 0-509-231-509-576 0-350 205-580 509-580 216 0 392 114 453 309l-173 49c-33-115-133-197-280-197-223 0-326 196-326 419 0 220 103 415 326 415 150 0 252-85 285-206l172 49C1010-95 832 24 613 24" id="ap"/><g id="h"><use transform="matrix(0.008680555555555556,0,0,0.008680555555555556,0,0)" xlink:href="#an"/><use transform="matrix(0.008680555555555556,0,0,0.008680555555555556,12.829861111111112,0)" xlink:href="#ac"/><use transform="matrix(0.008680555555555556,0,0,0.008680555555555556,22.847222222222225,0)" xlink:href="#ao"/><use transform="matrix(0.008680555555555556,0,0,0.008680555555555556,32.83854166666667,0)" xlink:href="#W"/><use transform="matrix(0.008680555555555556,0,0,0.008680555555555556,37.14409722222223,0)" xlink:href="#ap"/><use transform="matrix(0.008680555555555556,0,0,0.008680555555555556,47.300347222222236,0)" xlink:href="#ac"/></g><g id="i"><use transform="matrix(0.008680555555555556,0,0,0.008680555555555556,0,0)" xlink:href="#V"/><use transform="matrix(0.008680555555555556,0,0,0.008680555555555556,11.40625,0)" xlink:href="#ab"/><use transform="matrix(0.008680555555555556,0,0,0.008680555555555556,17.04861111111111,0)" xlink:href="#am"/><use transform="matrix(0.008680555555555556,0,0,0.008680555555555556,27.708333333333336,0)" xlink:href="#aj"/><use transform="matrix(0.008680555555555556,0,0,0.008680555555555556,34.10590277777778,0)" xlink:href="#ac"/></g><path fill="#333" d="M135 0v-1490h305v602h649v-602h306V0h-306v-635H440V0H135" id="aq"/><path fill="#333" d="M75-1237v-253h1217v253H837V0H531v-1237H75" id="ar"/><path fill="#333" d="M135 0v-1490h581c339 0 533 210 533 503 0 295-197 500-540 500H440V0H135zm305-733h220c186 0 274-104 274-254s-88-251-275-251H440v505" id="as"/><g id="j"><use transform="matrix(0.008680555555555556,0,0,0.008680555555555556,0,0)" xlink:href="#aq"/><use transform="matrix(0.008680555555555556,0,0,0.008680555555555556,13.28125,0)" xlink:href="#ar"/><use transform="matrix(0.008680555555555556,0,0,0.008680555555555556,25.147569444444443,0)" xlink:href="#ar"/><use transform="matrix(0.008680555555555556,0,0,0.008680555555555556,37.013888888888886,0)" xlink:href="#as"/></g><path fill="#333" d="M789 20C394 20 94-260 94-744c0-487 300-766 695-766s695 279 695 766c0 485-300 764-695 764zm0-271c231 0 385-174 385-493 0-321-154-495-385-495s-385 175-385 495c0 319 154 493 385 493" id="at"/><path fill="#333" d="M681 22C323 22 94-145 85-462h297c10 151 131 226 296 226 163 0 271-77 271-190 0-102-95-149-257-189l-164-41c-252-61-403-188-403-405 0-269 236-449 560-449 330 0 546 183 551 445H941c-11-119-106-188-259-188-156 0-244 72-244 172-3 156 226 185 373 221 250 61 445 186 445 436 0 271-213 446-575 446" id="au"/><g id="k"><use transform="matrix(0.008680555555555556,0,0,0.008680555555555556,0,0)" xlink:href="#as"/><use transform="matrix(0.008680555555555556,0,0,0.008680555555555556,11.519097222222223,0)" xlink:href="#at"/><use transform="matrix(0.008680555555555556,0,0,0.008680555555555556,25.217013888888893,0)" xlink:href="#au"/><use transform="matrix(0.008680555555555556,0,0,0.008680555555555556,36.85763888888889,0)" xlink:href="#ar"/></g><path d="M180 0v-1490h528c311 0 458 177 458 395 0 191-114 278-244 313v14c139 9 302 137 302 371 0 225-148 397-499 397H180zm190-168h350c232 0 321-102 321-231 0-149-120-277-311-277H370v508zm0-668h328c160 0 286-101 286-255 0-129-87-231-280-231H370v486" id="av"/><path d="M158 0v-1490h180v865h22l478-493h223L593-638 1096 0H865L456-523 338-412V0H158" id="aw"/><path d="M338-670V0H158v-1118h173l1 207c72-158 192-221 342-221 226 0 378 139 378 422V0H872v-695c0-172-96-275-252-275-161 0-282 109-282 300" id="ax"/><g id="m"><use transform="matrix(0.008680555555555556,0,0,0.008680555555555556,0,0)" xlink:href="#av"/><use transform="matrix(0.008680555555555556,0,0,0.008680555555555556,11.631944444444445,0)" xlink:href="#aa"/><use transform="matrix(0.008680555555555556,0,0,0.008680555555555556,21.614583333333336,0)" xlink:href="#ap"/><use transform="matrix(0.008680555555555556,0,0,0.008680555555555556,31.770833333333336,0)" xlink:href="#aw"/><use transform="matrix(0.008680555555555556,0,0,0.008680555555555556,41.12847222222222,0)" xlink:href="#ac"/><use transform="matrix(0.008680555555555556,0,0,0.008680555555555556,51.49305555555556,0)" xlink:href="#ax"/><use transform="matrix(0.008680555555555556,0,0,0.008680555555555556,61.99652777777778,0)" xlink:href="#ad"/></g><path d="M52 0l541-1490h220L1361 0h-200l-149-416H398L254 0H52zm404-582h497c-103-290-145-390-251-756-108 377-145 460-246 756" id="ay"/><g id="o"><use transform="matrix(0.008680555555555556,0,0,0.008680555555555556,0,0)" xlink:href="#ay"/><use transform="matrix(0.008680555555555556,0,0,0.008680555555555556,12.265625,0)" xlink:href="#Z"/><use transform="matrix(0.008680555555555556,0,0,0.008680555555555556,16.571180555555557,0)" xlink:href="#ac"/><use transform="matrix(0.008680555555555556,0,0,0.008680555555555556,26.935763888888893,0)" xlink:href="#aj"/><use transform="matrix(0.008680555555555556,0,0,0.008680555555555556,33.90625000000001,0)" xlink:href="#ab"/></g><path d="M611 442c-248 0-391-105-460-228l146-94c47 65 117 165 314 165 178 0 307-82 307-266v-224h-17C863-141 792-18 576-18c-268 0-472-195-472-546 0-346 197-568 476-568 216 0 288 133 326 193h17v-179h175V29c0 289-215 413-487 413zm-5-620c203 0 314-146 314-390 0-237-108-403-314-403-213 0-319 180-319 403 0 230 109 390 319 390" id="az"/><g id="p"><use transform="matrix(0.008680555555555556,0,0,0.008680555555555556,0,0)" xlink:href="#ae"/><use transform="matrix(0.008680555555555556,0,0,0.008680555555555556,10.68576388888889,0)" xlink:href="#ax"/><use transform="matrix(0.008680555555555556,0,0,0.008680555555555556,21.189236111111114,0)" xlink:href="#az"/><use transform="matrix(0.008680555555555556,0,0,0.008680555555555556,32.09201388888889,0)" xlink:href="#W"/><use transform="matrix(0.008680555555555556,0,0,0.008680555555555556,36.39756944444444,0)" xlink:href="#ax"/><use transform="matrix(0.008680555555555556,0,0,0.008680555555555556,46.90104166666667,0)" xlink:href="#ac"/></g><path d="M538 24C308 24 148-78 108-271l171-41c32 123 123 178 257 178 156 0 256-77 256-169 0-77-54-128-164-154l-186-44c-203-48-300-148-300-305 0-192 176-326 414-326 230 0 351 112 402 269l-163 42c-31-80-94-158-238-158-133 0-233 69-233 162 0 83 57 129 188 160l169 40c203 48 298 149 298 302 0 196-179 339-441 339" id="aA"/><path d="M338-670V0H158v-1490h180v566c73-149 190-208 336-208 226 0 379 139 379 422V0H872v-695c0-172-96-275-252-275-161 0-282 109-282 300" id="aB"/><path d="M677 24c-213 0-288-135-325-197h-20V0H158v-1490h180v551h14c37-59 106-193 324-193 279 0 474 222 474 576 0 356-194 580-473 580zm-27-161c209 0 317-186 317-421 0-232-105-413-317-413-206 0-314 166-314 413 0 249 111 421 314 421" id="aC"/><g id="r"><use transform="matrix(0.008680555555555556,0,0,0.008680555555555556,0,0)" xlink:href="#an"/><use transform="matrix(0.008680555555555556,0,0,0.008680555555555556,12.829861111111112,0)" xlink:href="#aa"/><use transform="matrix(0.008680555555555556,0,0,0.008680555555555556,22.8125,0)" xlink:href="#aA"/><use transform="matrix(0.008680555555555556,0,0,0.008680555555555556,32.19618055555556,0)" xlink:href="#aB"/><use transform="matrix(0.008680555555555556,0,0,0.008680555555555556,42.708333333333336,0)" xlink:href="#aC"/><use transform="matrix(0.008680555555555556,0,0,0.008680555555555556,53.59375,0)" xlink:href="#am"/><use transform="matrix(0.008680555555555556,0,0,0.008680555555555556,64.42708333333334,0)" xlink:href="#aa"/><use transform="matrix(0.008680555555555556,0,0,0.008680555555555556,74.40972222222223,0)" xlink:href="#aj"/><use transform="matrix(0.008680555555555556,0,0,0.008680555555555556,80.80729166666667,0)" xlink:href="#ad"/></g><path d="M458 0L52-1490h194c108 439 233 855 324 1313 92-459 221-873 331-1313h216c110 438 234 854 330 1307 92-455 216-869 323-1307h196L1558 0h-221l-256-944c-26-95-50-200-73-331-22 122-44 223-73 331L680 0H458" id="aD"/><g id="s"><use transform="matrix(0.008138020833333334,0,0,0.008138020833333334,0,0)" xlink:href="#aD"/><use transform="matrix(0.008138020833333334,0,0,0.008138020833333334,15.576171875000002,0)" xlink:href="#ac"/><use transform="matrix(0.008138020833333334,0,0,0.008138020833333334,25.292968750000004,0)" xlink:href="#aC"/><use transform="matrix(0.008138020833333334,0,0,0.008138020833333334,35.498046875,0)" xlink:href="#V"/><use transform="matrix(0.008138020833333334,0,0,0.008138020833333334,46.19140625,0)" xlink:href="#am"/><use transform="matrix(0.008138020833333334,0,0,0.008138020833333334,56.184895833333336,0)" xlink:href="#ap"/><use transform="matrix(0.008138020833333334,0,0,0.008138020833333334,65.70638020833334,0)" xlink:href="#aw"/><use transform="matrix(0.008138020833333334,0,0,0.008138020833333334,74.47916666666669,0)" xlink:href="#ac"/><use transform="matrix(0.008138020833333334,0,0,0.008138020833333334,84.19596354166669,0)" xlink:href="#ab"/></g><path d="M158 418v-1536h174v179h20c37-59 106-193 324-193 279 0 474 222 474 576 0 356-194 580-473 580-213 0-288-135-325-197h-14v591H158zm492-555c209 0 317-186 317-421 0-232-105-413-317-413-206 0-314 166-314 413 0 249 111 421 314 421" id="aE"/><g id="t"><use transform="matrix(0.008138020833333334,0,0,0.008138020833333334,0,0)" xlink:href="#aE"/><use transform="matrix(0.008138020833333334,0,0,0.008138020833333334,10.205078125,0)" xlink:href="#Y"/><use transform="matrix(0.008138020833333334,0,0,0.008138020833333334,20.060221354166668,0)" xlink:href="#aA"/><use transform="matrix(0.008138020833333334,0,0,0.008138020833333334,28.857421875,0)" xlink:href="#aB"/></g><path d="M180 0v-1490h510c348 0 508 194 508 460 0 198-88 351-276 417L1256 0h-220L726-579c-117 2-238 0-356 1V0H180zm190-747h312c235 0 327-108 327-283 0-177-92-293-329-293H370v576" id="aF"/><path d="M98-1322v-168h1126v168H757V0H567v-1322H98" id="aG"/><g id="u"><use transform="matrix(0.008138020833333334,0,0,0.008138020833333334,0,0)" xlink:href="#aF"/><use transform="matrix(0.008138020833333334,0,0,0.008138020833333334,10.725911458333334,0)" xlink:href="#ae"/><use transform="matrix(0.008138020833333334,0,0,0.008138020833333334,20.743815104166668,0)" xlink:href="#V"/><use transform="matrix(0.008138020833333334,0,0,0.008138020833333334,31.437174479166668,0)" xlink:href="#aG"/></g><g id="v"><use transform="matrix(0.008138020833333334,0,0,0.008138020833333334,0,0)" xlink:href="#aE"/><use transform="matrix(0.008138020833333334,0,0,0.008138020833333334,10.205078125,0)" xlink:href="#am"/><use transform="matrix(0.008138020833333334,0,0,0.008138020833333334,20.198567708333336,0)" xlink:href="#Z"/><use transform="matrix(0.008138020833333334,0,0,0.008138020833333334,24.23502604166667,0)" xlink:href="#Z"/></g><path d="M763 24c-353 0-583-224-583-531v-983h190v968c0 214 149 370 393 370 243 0 391-156 391-370v-968h190v983c0 307-230 531-581 531" id="aH"/><g id="x"><use transform="matrix(0.008680555555555556,0,0,0.008680555555555556,0,0)" xlink:href="#aH"/><use transform="matrix(0.008680555555555556,0,0,0.008680555555555556,13.229166666666668,0)" xlink:href="#aA"/><use transform="matrix(0.008680555555555556,0,0,0.008680555555555556,22.612847222222225,0)" xlink:href="#aa"/><use transform="matrix(0.008680555555555556,0,0,0.008680555555555556,32.595486111111114,0)" xlink:href="#az"/><use transform="matrix(0.008680555555555556,0,0,0.008680555555555556,43.49826388888889,0)" xlink:href="#ac"/></g><path d="M295-573c-75 0-135-60-135-135s60-135 135-135 135 60 135 135-60 135-135 135" id="aI"/><use transform="matrix(0.008680555555555556,0,0,0.008680555555555556,0,0)" xlink:href="#aI" id="y"/><path d="M783 20c-382 0-661-292-661-764 0-473 279-766 661-766 302 0 548 182 601 489h-190c-42-204-217-313-411-313-268 0-476 208-476 590 0 381 209 588 476 588 195 0 369-110 411-313h190c-52 303-296 489-601 489" id="aJ"/><g id="z"><use transform="matrix(0.008680555555555556,0,0,0.008680555555555556,0,0)" xlink:href="#aJ"/><use transform="matrix(0.008680555555555556,0,0,0.008680555555555556,12.986111111111112,0)" xlink:href="#am"/><use transform="matrix(0.008680555555555556,0,0,0.008680555555555556,23.645833333333336,0)" xlink:href="#aA"/><use transform="matrix(0.008680555555555556,0,0,0.008680555555555556,33.02951388888889,0)" xlink:href="#ab"/></g><g id="A"><use transform="matrix(0.008680555555555556,0,0,0.008680555555555556,0,0)" xlink:href="#aJ"/><use transform="matrix(0.008680555555555556,0,0,0.008680555555555556,12.986111111111112,0)" xlink:href="#aa"/><use transform="matrix(0.008680555555555556,0,0,0.008680555555555556,22.96875,0)" xlink:href="#aj"/><use transform="matrix(0.008680555555555556,0,0,0.008680555555555556,29.93923611111111,0)" xlink:href="#aC"/><use transform="matrix(0.008680555555555556,0,0,0.008680555555555556,40.824652777777786,0)" xlink:href="#am"/><use transform="matrix(0.008680555555555556,0,0,0.008680555555555556,51.48437500000001,0)" xlink:href="#ax"/></g><g id="C"><use transform="matrix(0.010850694444444444,0,0,0.010850694444444444,0,0)" xlink:href="#aG"/><use transform="matrix(0.010850694444444444,0,0,0.010850694444444444,12.608506944444445,0)" xlink:href="#ac"/><use transform="matrix(0.010850694444444444,0,0,0.010850694444444444,25.78125,0)" xlink:href="#aa"/><use transform="matrix(0.010850694444444444,0,0,0.010850694444444444,38.259548611111114,0)" xlink:href="#X"/></g><g id="D"><use transform="matrix(0.010850694444444444,0,0,0.010850694444444444,0,0)" xlink:href="#aC"/><use transform="matrix(0.010850694444444444,0,0,0.010850694444444444,13.606770833333332,0)" xlink:href="#aj"/><use transform="matrix(0.010850694444444444,0,0,0.010850694444444444,21.603732638888886,0)" xlink:href="#am"/><use transform="matrix(0.010850694444444444,0,0,0.010850694444444444,34.52690972222222,0)" xlink:href="#ak"/><use transform="matrix(0.010850694444444444,0,0,0.010850694444444444,52.71267361111112,0)" xlink:href="#aA"/><use transform="matrix(0.010850694444444444,0,0,0.010850694444444444,64.44227430555556,0)" xlink:href="#ac"/><use transform="matrix(0.010850694444444444,0,0,0.010850694444444444,77.39800347222223,0)" xlink:href="#aj"/></g><g id="F"><use transform="matrix(0.011935763888888888,0,0,0.011935763888888888,0,0)" xlink:href="#av"/><use transform="matrix(0.011935763888888888,0,0,0.011935763888888888,15.99392361111111,0)" xlink:href="#am"/><use transform="matrix(0.011935763888888888,0,0,0.011935763888888888,30.651041666666664,0)" xlink:href="#aA"/><use transform="matrix(0.011935763888888888,0,0,0.011935763888888888,43.55360243055555,0)" xlink:href="#aA"/></g><path d="M692-1560L212 224H46l480-1784h166" id="aK"/><use transform="matrix(0.011935763888888888,0,0,0.011935763888888888,0,0)" xlink:href="#aK" id="G"/><g id="H"><use transform="matrix(0.011935763888888888,0,0,0.011935763888888888,0,0)" xlink:href="#aG"/><use transform="matrix(0.011935763888888888,0,0,0.011935763888888888,13.869357638888888,0)" xlink:href="#ac"/><use transform="matrix(0.011935763888888888,0,0,0.011935763888888888,28.359374999999996,0)" xlink:href="#aa"/><use transform="matrix(0.011935763888888888,0,0,0.011935763888888888,42.08550347222222,0)" xlink:href="#X"/></g><g id="I"><use transform="matrix(0.011935763888888888,0,0,0.011935763888888888,0,0)" xlink:href="#an"/><use transform="matrix(0.011935763888888888,0,0,0.011935763888888888,17.641059027777775,0)" xlink:href="#W"/><use transform="matrix(0.011935763888888888,0,0,0.011935763888888888,23.561197916666664,0)" xlink:href="#aA"/><use transform="matrix(0.011935763888888888,0,0,0.011935763888888888,36.46375868055555,0)" xlink:href="#ap"/><use transform="matrix(0.011935763888888888,0,0,0.011935763888888888,50.42860243055555,0)" xlink:href="#am"/><use transform="matrix(0.011935763888888888,0,0,0.011935763888888888,65.0857204861111,0)" xlink:href="#aj"/><use transform="matrix(0.011935763888888888,0,0,0.011935763888888888,73.8823784722222,0)" xlink:href="#ad"/></g><g id="J"><use transform="matrix(0.011935763888888888,0,0,0.011935763888888888,0,0)" xlink:href="#aA"/><use transform="matrix(0.011935763888888888,0,0,0.011935763888888888,12.902560763888888,0)" xlink:href="#ac"/><use transform="matrix(0.011935763888888888,0,0,0.011935763888888888,27.15386284722222,0)" xlink:href="#aj"/><use transform="matrix(0.011935763888888888,0,0,0.011935763888888888,36.73828125,0)" xlink:href="#ao"/><use transform="matrix(0.011935763888888888,0,0,0.011935763888888888,49.99891493055555,0)" xlink:href="#ac"/><use transform="matrix(0.011935763888888888,0,0,0.011935763888888888,64.25021701388889,0)" xlink:href="#aj"/></g><g id="L"><use transform="matrix(0.011935763888888888,0,0,0.011935763888888888,0,0)" xlink:href="#av"/><use transform="matrix(0.011935763888888888,0,0,0.011935763888888888,15.99392361111111,0)" xlink:href="#am"/><use transform="matrix(0.011935763888888888,0,0,0.011935763888888888,30.651041666666664,0)" xlink:href="#ab"/></g><path d="M218-607c0-325 108-727 258-974h175c-155 315-250 682-250 974 0 265 78 531 250 886H476C306-10 218-315 218-607" id="aL"/><path d="M295 13c-75 0-135-60-135-135s60-135 135-135 135 60 135 135S370 13 295 13" id="aM"/><path d="M157-1118h181V80c1 225-123 350-364 338V252c126 9 184-48 183-172v-1198zm91-183c-68 0-125-53-125-119s57-119 125-119c69 0 126 53 126 119s-57 119-126 119" id="aN"/><g id="M"><use transform="matrix(0.011935763888888888,0,0,0.011935763888888888,0,0)" xlink:href="#aL"/><use transform="matrix(0.011935763888888888,0,0,0.011935763888888888,8.641493055555555,0)" xlink:href="#ad"/><use transform="matrix(0.011935763888888888,0,0,0.011935763888888888,23.60894097222222,0)" xlink:href="#W"/><use transform="matrix(0.011935763888888888,0,0,0.011935763888888888,29.52907986111111,0)" xlink:href="#aA"/><use transform="matrix(0.011935763888888888,0,0,0.011935763888888888,42.431640625,0)" xlink:href="#ap"/><use transform="matrix(0.011935763888888888,0,0,0.011935763888888888,56.39648437499999,0)" xlink:href="#am"/><use transform="matrix(0.011935763888888888,0,0,0.011935763888888888,71.05360243055556,0)" xlink:href="#aj"/><use transform="matrix(0.011935763888888888,0,0,0.011935763888888888,79.85026041666666,0)" xlink:href="#ad"/><use transform="matrix(0.011935763888888888,0,0,0.011935763888888888,94.81770833333333,0)" xlink:href="#aM"/><use transform="matrix(0.011935763888888888,0,0,0.011935763888888888,101.85980902777777,0)" xlink:href="#aN"/><use transform="matrix(0.011935763888888888,0,0,0.011935763888888888,107.77994791666666,0)" xlink:href="#aA"/></g><path d="M653-1490V0H466v-1314h-10L96-1047v-204l324-239h233" id="aO"/><path d="M120-303v-155l652-1032h231v1020h202v167h-202V0H821v-303H120zm702-167v-782h-12L323-482v12h499" id="aP"/><path d="M96 279C273-86 346-350 346-607c0-292-95-659-250-974h175c150 246 258 650 258 974 0 297-91 602-258 886H96" id="aQ"/><g id="N"><use transform="matrix(0.011935763888888888,0,0,0.011935763888888888,0,0)" xlink:href="#ao"/><use transform="matrix(0.011935763888888888,0,0,0.011935763888888888,13.73806423611111,0)" xlink:href="#aO"/><use transform="matrix(0.011935763888888888,0,0,0.011935763888888888,23.680555555555557,0)" xlink:href="#aP"/><use transform="matrix(0.011935763888888888,0,0,0.011935763888888888,39.47157118055556,0)" xlink:href="#aQ"/></g><path d="M678-1118v154H420V0H240v-964H20v-154h220v-149c0-194 155-293 318-293 85 0 141 18 168 30l-50 154c-19-6-47-17-97-17-111 0-159 58-159 166v109h258" id="aR"/><path d="M140 405l46-156c120 36 205 19 263-150l32-93L54-1118h197c107 313 237 620 324 950 87-331 219-637 326-950h196L606 167c-68 178-176 259-334 259-64 0-113-12-132-21" id="aS"/><g id="O"><use transform="matrix(0.008680555555555556,0,0,0.008680555555555556,0,0)" xlink:href="#ae"/><use transform="matrix(0.008680555555555556,0,0,0.008680555555555556,10.68576388888889,0)" xlink:href="#aR"/><use transform="matrix(0.008680555555555556,0,0,0.008680555555555556,16.571180555555557,0)" xlink:href="#aR"/><use transform="matrix(0.008680555555555556,0,0,0.008680555555555556,23.151041666666668,0)" xlink:href="#W"/><use transform="matrix(0.008680555555555556,0,0,0.008680555555555556,27.456597222222218,0)" xlink:href="#ap"/><use transform="matrix(0.008680555555555556,0,0,0.008680555555555556,37.61284722222222,0)" xlink:href="#W"/><use transform="matrix(0.008680555555555556,0,0,0.008680555555555556,41.91840277777778,0)" xlink:href="#ac"/><use transform="matrix(0.008680555555555556,0,0,0.008680555555555556,52.282986111111114,0)" xlink:href="#ax"/><use transform="matrix(0.008680555555555556,0,0,0.008680555555555556,62.786458333333336,0)" xlink:href="#ap"/><use transform="matrix(0.008680555555555556,0,0,0.008680555555555556,72.59548611111111,0)" xlink:href="#aS"/></g></defs></g></svg>